HIERARCHY
ROOT Pelvis
{
	OFFSET 0.000000 0.000000 0.000000
	CHANNELS 6 Xposition Yposition Zposition Xrotation Yrotation Zrotation
	JOINT LeftUpLeg_virtual
	{
		OFFSET 0.000000 0.000000 0.000000
		CHANNELS 3 Xrotation Yrotation Zrotation
		JOINT LeftUpLeg
		{
			OFFSET 18.735201 -5.666702 -4.541200
			CHANNELS 3 Xrotation Yrotation Zrotation
			JOINT LeftLeg
			{
				OFFSET -0.021200 -31.938179 0.493100
				CHANNELS 3 Xrotation Yrotation Zrotation
				JOINT LeftFoot
				{
					OFFSET 0.021200 -31.938179 -4.336299
					CHANNELS 3 Xrotation Yrotation Zrotation
					JOINT LeftToeBase
					{
						OFFSET 0.943001 -26.722000 15.023500
						CHANNELS 3 Xrotation Yrotation Zrotation
						End Site
						{
							OFFSET 0 0 0
						}
					}
				}
			}
		}
	}
	JOINT RightUpLeg_virtual
	{
		OFFSET 0.000000 0.000000 0.000000
		CHANNELS 3 Xrotation Yrotation Zrotation
		JOINT RightUpLeg
		{
			OFFSET -18.735201 -5.666702 -4.541200
			CHANNELS 3 Xrotation Yrotation Zrotation
			JOINT RightLeg
			{
				OFFSET 0.018946 -31.938133 0.493100
				CHANNELS 3 Xrotation Yrotation Zrotation
				JOINT RightFoot
				{
					OFFSET -0.018946 -31.938126 -4.336299
					CHANNELS 3 Xrotation Yrotation Zrotation
					JOINT RightToeBase
					{
						OFFSET -0.943001 -26.722004 15.023500
						CHANNELS 3 Xrotation Yrotation Zrotation
						End Site
						{
							OFFSET 0 0 0
						}
					}
				}
			}
		}
	}
	JOINT Hips_virtual
	{
		OFFSET 0.000000 0.000000 0.000000
		CHANNELS 3 Xrotation Yrotation Zrotation
		JOINT Hips
		{
			OFFSET -0.000000 -0.000000 -0.000000
			CHANNELS 3 Xrotation Yrotation Zrotation
			JOINT Spine
			{
				OFFSET 0.000000 10.199997 -0.299500
				CHANNELS 3 Xrotation Yrotation Zrotation
				JOINT Spine1
				{
					OFFSET 0.000000 11.900002 -1.516600
					CHANNELS 3 Xrotation Yrotation Zrotation
					JOINT Spine2
					{
						OFFSET 0.000000 13.600006 -2.842500
						CHANNELS 3 Xrotation Yrotation Zrotation
						JOINT Neck_virtual
						{
							OFFSET 0.000000 0.000000 0.000000
							CHANNELS 3 Xrotation Yrotation Zrotation
							JOINT Neck
							{
								OFFSET 0.000000 9.624100 -2.890100
								CHANNELS 3 Xrotation Yrotation Zrotation
								JOINT Head
								{
									OFFSET 0.000000 14.068802 -1.351900
									CHANNELS 3 Xrotation Yrotation Zrotation
									End Site
									{
										OFFSET 0 0 0
									}
								}
							}
						}
						JOINT LeftShoulder_virtual
						{
							OFFSET 0.000000 0.000000 0.000000
							CHANNELS 3 Xrotation Yrotation Zrotation
							JOINT LeftShoulder
							{
								OFFSET 15.263000 10.923401 -0.547700
								CHANNELS 3 Xrotation Yrotation Zrotation
								JOINT LeftArm
								{
									OFFSET 25.438599 -2.830597 -13.032500
									CHANNELS 3 Xrotation Yrotation Zrotation
									JOINT LeftForeArm
									{
										OFFSET 29.960503 0.000000 0.000000
										CHANNELS 3 Xrotation Yrotation Zrotation
										JOINT LeftHand
										{
											OFFSET 27.849251 0.000000 0.000000
											CHANNELS 3 Xrotation Yrotation Zrotation
											End Site
											{
												OFFSET 0 0 0
											}
										}
									}
								}
							}
						}
						JOINT RightShoulder_virtual
						{
							OFFSET 0.000000 0.000000 0.000000
							CHANNELS 3 Xrotation Yrotation Zrotation
							JOINT RightShoulder
							{
								OFFSET -15.263000 10.923401 -0.547700
								CHANNELS 3 Xrotation Yrotation Zrotation
								JOINT RightArm
								{
									OFFSET -25.438599 -2.830597 -13.032500
									CHANNELS 3 Xrotation Yrotation Zrotation
									JOINT RightForeArm
									{
										OFFSET -29.960503 0.000000 0.000000
										CHANNELS 3 Xrotation Yrotation Zrotation
										JOINT RightHand
										{
											OFFSET -27.849251 0.000000 0.000000
											CHANNELS 3 Xrotation Yrotation Zrotation
											End Site
											{
												OFFSET 0 0 0
											}
										}
									}
								}
							}
						}
					}
				}
			}
		}
	}
}
MOTION
Frames: 10
Frame Time: 0.03333333
-0.003788 92.485527 3.843134 0.000000 0.000000 0.000000 10.795927 -5.336256 -1.287938 -26.771196 10.844794 14.570696 32.861201 -4.186461 -0.402201 -14.844542 -3.871832 -8.207090 0.000000 0.000000 0.000000 7.422336 -0.921325 0.356843 -19.871266 -5.500193 -14.347186 27.472020 3.631029 0.291321 -20.083563 -0.922063 13.641173 0.000000 0.000000 0.000000 -0.048927 -0.848270 0.595332 -1.455992 3.832748 0.881447 3.683637 1.007201 0.387854 0.563862 0.637537 0.036814 0.000000 0.000000 0.000000 2.124304 0.319365 -0.156520 -0.892313 -0.066587 -0.098922 0.000000 0.000000 0.000000 1.753598 1.063940 -1.033028 0.256213 -3.506454 -9.824372 1.164186 -6.234966 -54.580441 3.168823 -37.793189 -4.434284 0.000000 0.000000 0.000000 2.110547 0.039163 1.306713 -0.072060 6.576874 11.126557 2.651646 3.297723 50.232312 3.410237 37.630015 3.293026 0.000000 0.000000 0.000000 
-0.774101 92.429100 3.987499 0.000000 0.000000 0.000000 10.591605 -4.676235 -1.256995 -27.291824 10.971121 14.838188 31.469120 -4.853979 -0.666426 -15.938369 -4.350979 -9.016185 0.000000 0.000000 0.000000 6.912910 -2.010649 0.225371 -20.711200 -5.689191 -14.643109 27.620482 4.136455 0.123941 -20.185970 -0.351261 13.617565 0.000000 0.000000 0.000000 -1.112532 -1.676432 -0.294904 1.197441 3.659194 -0.145492 3.393804 0.753423 0.225268 0.433908 0.762952 0.309521 0.000000 0.000000 0.000000 2.412067 0.359024 -0.379978 -0.708984 0.003372 -0.132050 0.000000 0.000000 0.000000 1.133410 1.006316 -1.039354 0.745604 -3.171130 -10.448005 2.010574 -5.568712 -54.690260 4.311082 -36.989579 -3.781695 0.000000 0.000000 0.000000 1.775506 0.311858 1.201602 0.043374 7.392919 11.621604 2.673732 4.148358 50.102696 3.045069 39.807469 3.454890 0.000000 0.000000 0.000000 
-0.525655 92.932091 4.251043 0.000000 0.000000 0.000000 10.246815 -4.461929 -1.404986 -27.566548 10.980186 14.667147 30.182674 -4.841398 -0.682183 -16.784481 -4.285331 -9.021099 0.000000 0.000000 0.000000 6.235036 -2.576338 -0.005465 -21.694194 -5.638127 -14.989091 27.207478 4.257474 0.069978 -20.495583 -0.208284 13.515112 0.000000 0.000000 0.000000 -0.013637 -1.555018 0.537577 -0.728035 3.752998 0.150478 4.156305 0.529713 -0.442689 -0.117824 0.660588 0.464254 0.000000 0.000000 0.000000 2.527305 0.338074 -0.333753 -0.747736 -0.045310 -0.151674 0.000000 0.000000 0.000000 0.978040 1.369337 -0.900292 0.773946 -3.908901 -10.768706 1.961964 -5.576155 -54.266324 4.897367 -35.864671 -3.222529 0.000000 0.000000 0.000000 1.727414 0.422435 1.106430 0.507747 6.965940 11.617347 3.038748 3.653011 50.919316 2.729956 37.188888 3.466960 0.000000 0.000000 0.000000 
-0.322867 93.016663 3.899479 0.000000 0.000000 0.000000 9.990621 -5.645852 -1.932904 -27.859875 10.829141 13.969766 30.318380 -4.712090 -0.670298 -16.750665 -4.143276 -8.962287 0.000000 0.000000 0.000000 6.850740 -1.516962 -0.071928 -20.843104 -5.454480 -14.943409 28.331353 4.367691 -0.144069 -19.775173 0.070025 13.292226 0.000000 0.000000 0.000000 -0.597793 -0.634525 -0.074069 1.863151 3.879888 -0.576318 3.287050 0.114779 -0.110940 0.074545 0.912373 0.052368 0.000000 0.000000 0.000000 2.537841 0.238670 -0.314117 -0.729111 -0.073507 -0.167537 0.000000 0.000000 0.000000 1.448817 1.162325 -1.048521 0.763019 -3.372637 -10.574722 2.153476 -6.922299 -54.654924 4.919694 -37.200786 -3.282845 0.000000 0.000000 0.000000 2.043410 0.511546 1.042156 0.473748 6.880602 12.603476 3.081063 3.870934 51.378913 3.009526 39.206447 3.570887 0.000000 0.000000 0.000000 
0.139231 92.444916 3.643440 0.000000 0.000000 0.000000 10.105416 -5.420030 -1.826268 -27.446504 10.840542 13.998008 30.354324 -4.382708 -0.654959 -16.576306 -3.838044 -8.762832 0.000000 0.000000 0.000000 7.131860 -1.252744 -0.486066 -20.423647 -5.366489 -15.319855 28.970910 4.754124 -0.172716 -19.324980 0.519456 13.506254 0.000000 0.000000 0.000000 0.905767 0.245099 -0.166794 0.017085 2.931418 -0.093847 3.884303 0.440014 -0.461536 -0.458940 0.870552 0.344703 0.000000 0.000000 0.000000 2.198540 0.263615 -0.202951 -1.104370 0.000132 -0.121008 0.000000 0.000000 0.000000 1.260826 1.019050 -1.005293 0.596700 -3.264283 -11.177083 2.126612 -7.188846 -53.129934 4.794342 -37.538303 -3.018367 0.000000 0.000000 0.000000 1.750490 0.558495 1.216388 0.584367 7.546754 12.499274 2.926221 3.445165 51.364143 2.646975 40.627543 3.784893 0.000000 0.000000 0.000000 
0.008056 92.745453 3.368111 0.000000 0.000000 0.000000 10.007034 -5.045223 -1.701438 -27.912970 10.890399 14.363606 30.933770 -4.752035 -0.535610 -16.268025 -4.257837 -8.836844 0.000000 0.000000 0.000000 6.771859 -1.217912 -0.053910 -20.987233 -5.368770 -14.861383 29.113316 4.459623 -0.029064 -19.312555 0.122443 13.547311 0.000000 0.000000 0.000000 -1.010544 -2.519206 0.280924 0.289188 5.655235 0.230110 2.897824 -0.027828 -0.569769 0.043032 1.119782 0.279661 0.000000 0.000000 0.000000 2.324704 0.346382 -0.180712 -0.678200 -0.080380 -0.145268 0.000000 0.000000 0.000000 0.909737 1.151109 -1.071244 0.674568 -3.060407 -10.774745 1.727500 -6.995644 -53.246977 5.240640 -38.564843 -2.759428 0.000000 0.000000 0.000000 2.000483 0.592569 1.218253 0.883436 7.109969 12.590033 1.977751 4.641433 52.315144 3.334171 39.635202 3.748947 0.000000 0.000000 0.000000 
-0.125829 92.670113 3.473900 0.000000 0.000000 0.000000 10.213815 -5.263587 -1.818976 -27.687207 10.922893 14.213158 31.417784 -4.720620 -0.434278 -15.859515 -4.296129 -8.714263 0.000000 0.000000 0.000000 7.058096 -1.244421 -0.108756 -20.681413 -5.398864 -14.936529 29.189910 4.702128 0.023030 -19.299507 0.334496 13.753710 0.000000 0.000000 0.000000 -0.244806 -1.375837 0.341836 -0.180995 5.638827 -0.301946 2.921318 0.354954 -0.716906 0.492722 0.515536 0.159380 0.000000 0.000000 0.000000 2.706783 0.257004 -0.274065 -0.711942 -0.158434 -0.260836 0.000000 0.000000 0.000000 1.151881 1.115723 -1.047269 0.774343 -4.164801 -10.693620 2.349249 -8.259476 -53.237466 5.076590 -40.697829 -3.215113 0.000000 0.000000 0.000000 1.965321 0.537892 1.124586 0.988759 5.777537 12.339316 2.173659 3.757063 52.026487 2.935074 38.856260 3.910097 0.000000 0.000000 0.000000 
0.278976 92.940468 2.800419 0.000000 0.000000 0.000000 9.881790 -4.530823 -1.662098 -28.169170 10.945998 14.536075 31.282396 -4.806510 -0.491154 -15.944701 -4.314905 -8.876201 0.000000 0.000000 0.000000 6.372942 -1.998498 -0.142154 -21.708611 -5.493394 -15.065802 28.912932 4.619420 0.160059 -19.322446 0.250837 13.869090 0.000000 0.000000 0.000000 0.282691 -2.775456 0.252865 1.333610 6.522204 -0.091119 2.843503 0.495445 -0.305306 -0.324533 0.662195 0.044063 0.000000 0.000000 0.000000 2.616134 0.409224 -0.283934 -0.773154 -0.187901 -0.133156 0.000000 0.000000 0.000000 1.090492 1.017097 -0.984123 0.642814 -3.731802 -10.131148 1.029007 -7.156393 -53.102265 4.138433 -42.518068 -3.012471 0.000000 0.000000 0.000000 2.241717 0.662249 0.930150 0.731964 5.611137 12.549377 2.467373 3.909240 51.416995 3.142915 40.422494 3.781356 0.000000 0.000000 0.000000 
0.217539 92.989883 2.529625 0.000000 0.000000 0.000000 9.179439 -4.632291 -1.302190 -29.012608 10.629410 14.945378 32.046763 -4.580086 -0.323105 -15.424797 -4.177461 -8.526730 0.000000 0.000000 0.000000 6.332810 -1.474669 -0.212407 -21.770497 -5.334351 -15.090070 29.277213 4.500459 -0.018751 -19.117279 0.251760 13.520119 0.000000 0.000000 0.000000 1.301709 -1.918086 0.730444 1.335068 6.205120 -0.320654 2.900636 0.782713 -0.514202 -0.213411 0.864953 0.203063 0.000000 0.000000 0.000000 2.581893 0.477251 -0.322668 -0.801026 -0.238278 -0.184462 0.000000 0.000000 0.000000 0.901189 1.186659 -0.998008 0.644676 -3.946859 -9.863877 -0.976938 -7.557010 -51.775904 3.569140 -43.398920 -2.917242 0.000000 0.000000 0.000000 2.074189 0.702600 1.095883 0.857272 5.895658 12.774014 1.748522 5.170539 51.612905 3.137519 39.963481 3.968037 0.000000 0.000000 0.000000 
0.118258 93.078941 2.002974 0.000000 0.000000 0.000000 8.884869 -3.987156 -1.559743 -29.484294 10.792583 14.817037 32.235399 -4.402396 -0.500309 -15.163995 -3.927022 -8.721465 0.000000 0.000000 0.000000 6.081437 -1.232731 -0.318515 -22.007274 -5.203966 -15.114703 29.414674 4.391009 0.006274 -18.928619 0.164299 13.486603 0.000000 0.000000 0.000000 1.685188 -1.505153 1.070844 2.432864 5.740113 -0.083503 3.206979 0.809055 -0.482662 -0.094948 0.830851 0.224129 0.000000 0.000000 0.000000 2.468813 0.383431 -0.310931 -0.858938 -0.275799 -0.228114 0.000000 0.000000 0.000000 0.921807 1.130556 -0.936948 0.777309 -3.658809 -10.116968 -3.226021 -7.489740 -50.999178 2.301426 -45.446539 -3.185628 0.000000 0.000000 0.000000 2.429358 0.683423 1.083162 1.076814 5.358730 12.073532 0.895210 5.351848 51.239362 3.111241 41.745023 3.717985 0.000000 0.000000 0.000000 
